<?xml version="1.0" encoding="utf-8"?>
<!-- Svg Vector Icons : http://www.onlinewebfonts.com/icon -->
<!DOCTYPE svg PUBLIC "-//W3C//DTD SVG 1.1//EN" "http://www.w3.org/Graphics/SVG/1.1/DTD/svg11.dtd">
<svg version="1.1" xmlns="http://www.w3.org/2000/svg" xmlns:xlink="http://www.w3.org/1999/xlink" x="0px" y="0px"  width="150px" height="150px" viewBox="0 0 1000 1000" enable-background="new 0 0 1000 1000" xml:space="preserve">
<metadata> Svg Vector Icons : http://www.onlinewebfonts.com/icon </metadata>
<g><path d="M403.8,864.8c-5.2,0-10.1-2.1-13.8-5.7L193.8,662.8c-7.6-7.6-7.6-19.9,0-27.6c7.6-7.6,19.9-7.6,27.6,0l182.5,182.5l394.3-394.3c7.6-7.6,19.9-7.6,27.6,0c7.6,7.6,7.6,19.9,0,27.6L417.6,859.1C414,862.7,409,864.8,403.8,864.8z"/><path d="M908.9,989.2H91c-44.3,0-80.3-36-80.3-80.3V190.4c0-44.3,36-80.3,80.3-80.3h157.8c10.8,0,19.5,8.7,19.5,19.5c0,10.8-8.7,19.5-19.5,19.5H91c-22.8,0-41.3,18.5-41.3,41.3v718.5c0,22.8,18.5,41.3,41.3,41.3h817.8c22.8,0,41.3-18.5,41.3-41.3V528.4c0-10.8,8.7-19.5,19.5-19.5c10.8,0,19.5,8.7,19.5,19.5v380.5C989.2,953.2,953.1,989.2,908.9,989.2z"/><path d="M624.6,148.4H382.2c-10.8,0-19.5-8.7-19.5-19.5c0-10.8,8.7-19.5,19.5-19.5h242.4c10.8,0,19.5,8.7,19.5,19.5C644.1,139.7,635.3,148.4,624.6,148.4z"/><path d="M970.4,332.9H29.5c-10.8,0-19.5-8.7-19.5-19.5c0-10.8,8.7-19.5,19.5-19.5h920.7V190.4c0-22.8-18.5-41.3-41.3-41.3H748.5c-10.8,0-19.5-8.7-19.5-19.5c0-10.8,8.7-19.5,19.5-19.5h160.4c44.3,0,80.3,36,80.3,80.3V308c0.5,1.7,0.7,3.5,0.7,5.4C989.9,324.2,981.2,332.9,970.4,332.9z"/><path d="M314.7,246c-38.6,0-70-31.4-70-70V80.8c0-38.6,31.4-70,70-70c38.6,0,70,31.4,70,70v95.1C384.7,214.5,353.3,246,314.7,246z M314.7,49.8c-17.1,0-31.1,13.9-31.1,31v95.1c0,17.1,13.9,31,31.1,31s31-13.9,31-31V80.8C345.7,63.7,331.8,49.8,314.7,49.8z"/><path d="M685.3,246c-38.6,0-70-31.4-70-70V80.8c0-38.6,31.4-70,70-70c38.6,0,70,31.4,70,70v95.1C755.3,214.5,723.9,246,685.3,246z M685.3,49.8c-17.1,0-31,13.9-31,31v95.1c0,17.1,13.9,31,31,31c17.1,0,31-13.9,31-31V80.8C716.3,63.7,702.4,49.8,685.3,49.8z"/><path d="M990,420.5c0,10.8-8.8,19.6-19.6,19.6c-10.8,0-19.6-8.8-19.6-19.6c0-10.8,8.8-19.6,19.6-19.6C981.2,400.9,990,409.7,990,420.5"/></g>
</svg>