<?xml version="1.0" encoding="UTF-8"?><svg id="Calque_1" xmlns="http://www.w3.org/2000/svg" viewBox="0 0 1451.3 1369.92"><defs><style>.cls-1{fill:#fff;stroke:#000;stroke-miterlimit:10;stroke-width:55.68px;}</style></defs><path class="cls-1" d="m280.45,27.84v239.8C130.73,343.3,27.84,498.14,27.84,677.35s102.89,334.05,252.62,409.71v255.02h1143.01V27.84H280.45Z"/><path d="m922.04,1121.78c-16.23-5.8-32.53-11.43-48.67-17.48-10.18-3.82-13.67-10.92-13.39-22.39.91-36.54.34-73.11.34-109.67,0-3.09,0-6.19,0-10.03,33.25,6.31,61.97-1.18,85.52-24.8,18.48-18.54,26.94-41.29,25.92-67.49-2.02-52.16-51.85-96.11-110.89-83.71v-78.41c5.07,0,9.87,0,14.66,0,29.71,0,59.47-1.13,89.11.31,31.29,1.52,47.45-29.59,31.26-53.18-9.57-13.94-7.66-31.45,2.5-43.96,10.66-13.12,24.65-17.04,40.73-13.14,14.96,3.63,26.73,16.92,27.54,33.42.39,8.05-1.5,17.68-5.88,24.22-15.05,22.45-.19,53.72,30.77,52.59,32.24-1.19,64.55-.09,96.83-.42,6.25-.06,9.71,1.98,12.85,7.29,62.11,105.11-5.49,241.1-126.74,254.73-3.07.35-6.12.93-7.59,1.16-1.19,17.42-.38,34.47-3.82,50.61-10.84,50.97-53.85,90.26-105.46,98.55-2.18.35-4.29,1.17-6.43,1.77h-29.14Z"/><path d="m718.07,1121.78c-6.34-1.45-12.72-2.77-19.02-4.37-56.65-14.3-106.24-71.76-94.26-147.88-6.89-.99-13.84-1.75-20.69-3.02-84.7-15.66-142.99-89.3-139.01-175.38,1.29-27.94,9.12-53.85,23.7-77.67,1.44-2.36,4.41-5.34,6.7-5.38,25.35-.38,50.71-.24,77.03-.24-6.36,35.36,2.41,65.33,28.63,89.11,17.95,16.28,39.56,23.31,63.74,22.43,46.55-1.71,95.38-44.09,83.9-110.88h80.1c0,3.17,0,6.2,0,9.23,0,31.12.99,62.28-.27,93.35-1.29,31.67,30.65,46.25,52.96,30.73,13.79-9.6,28.87-8.23,42.53,1.26,13.19,9.17,18.43,22.51,15.66,38.16-2.85,16.09-13,26.37-28.77,30.56-10.38,2.76-20.81,1.65-29.53-4.69-22.84-16.61-53.74.26-52.93,30.65,1.34,49.93.24,99.92.52,149.89.04,6.23-1.94,9.84-7.1,13.05-16.21,10.07-33.48,17.04-52.47,19.55-1.94.26-3.81,1.01-5.71,1.53h-25.71Z"/><path d="m808.5,578.34v78.28c-3.07,0-6.09,0-9.1,0-31.99,0-64.03.95-95.97-.27-30.61-1.17-45.95,30.11-30.42,52.54,9.71,14.03,8.06,31.41-1.84,44.03-10.44,13.3-24.36,17.43-40.5,13.84-14.89-3.31-26.13-16.64-28.47-32.97-1.45-10.15,2.18-18.94,7.18-27.56,9.29-16,5.26-35.49-10.01-44.22-6.08-3.47-14.01-5.05-21.13-5.16-32.84-.53-65.7-.37-98.55-.11-5.57.04-8.69-1.73-11.6-6.48-62.47-101.96,6.02-241.35,124.72-253.64,3.66-.38,7.3-.92,9.91-1.26.75-15.91-.01-31.4,2.44-46.36,14.62-89.33,125.68-134.85,199-81.85,2.19,1.58,4.55,4.78,4.56,7.24.28,42.23.2,84.47.2,127.65-34.63-6.26-64.49,1.84-88.28,27.6-17.34,18.77-24.41,41.36-23.16,66.86,2.15,43.69,45.88,94.51,111.04,81.83Z"/><path d="m1117.18,656.62c12.82-69.4-42.96-113.67-91.46-111.84-48.66,1.83-96.79,44.83-85.4,111.2h-80c0-7.6,0-14.94,0-22.29,0-26.84-.84-53.71.21-80.5,1.27-32.38-31.49-45.85-53.07-30.56-13.67,9.68-28.85,8.18-42.51-1.36-13.19-9.22-18.31-22.6-15.55-38.2,2.77-15.71,12.67-25.89,28.04-30.26,11.69-3.32,22.3-.41,32.68,5.67,20.88,12.23,45.47,1.33,49.64-21.7.65-3.61.53-7.39.53-11.09.03-49.1.15-98.21-.14-147.31-.04-6.26,2-9.86,7.19-12.98,46.3-27.79,93.48-29.54,139.02-.44,45.74,29.23,64.78,72.73,58.51,126.92-.16,1.37-.25,2.75-.36,4.11,13.12,2.62,26.13,4.31,38.62,7.84,101.53,28.74,151.64,148.5,101.56,241.37-4.67,8.65-9.92,12.1-19.88,11.67-19.67-.85-39.39-.25-59.1-.25-2.79,0-5.59,0-8.53,0Z"/></svg>